<svg xmlns="http://www.w3.org/2000/svg" width="230.56" height="35" viewBox="0 0 230.56 35"><rect class="svg__rect" x="0" y="0" width="102.9" height="35" fill="#434343"/><rect class="svg__rect" x="100.9" y="0" width="129.66" height="35" fill="#FFE599"/><path class="svg__text" d="M15.70 22L14.22 22L14.22 13.47L17.22 13.47Q18.69 13.47 19.50 14.13Q20.30 14.79 20.30 16.05L20.30 16.05Q20.30 16.90 19.89 17.48Q19.47 18.06 18.73 18.37L18.73 18.37L20.65 21.92L20.65 22L19.06 22L17.35 18.71L15.70 18.71L15.70 22ZM15.70 14.66L15.70 17.52L17.22 17.52Q17.97 17.52 18.39 17.15Q18.82 16.77 18.82 16.11L18.82 16.11Q18.82 15.43 18.43 15.05Q18.04 14.68 17.26 14.66L17.26 14.66L15.70 14.66ZM30.27 22L24.69 22L24.69 13.47L30.23 13.47L30.23 14.66L26.18 14.66L26.18 17.02L29.68 17.02L29.68 18.19L26.18 18.19L26.18 20.82L30.27 20.82L30.27 22ZM34.16 18.00L34.16 18.00L34.16 17.52Q34.16 16.28 34.60 15.32Q35.05 14.37 35.85 13.86Q36.66 13.35 37.70 13.35L37.70 13.35Q38.75 13.35 39.56 13.85Q40.36 14.35 40.80 15.29Q41.24 16.23 41.25 17.48L41.25 17.48L41.25 17.96Q41.25 19.17 40.86 20.06Q40.48 20.95 39.79 21.47L39.79 21.47L41.25 22.61L40.29 23.48L38.48 22.04Q38.12 22.12 37.71 22.12L37.71 22.12Q36.68 22.12 35.86 21.61Q35.05 21.10 34.61 20.17Q34.17 19.23 34.16 18.00ZM35.64 17.46L35.64 17.96Q35.64 19.34 36.19 20.12Q36.73 20.90 37.71 20.90L37.71 20.90Q38.70 20.90 39.23 20.15Q39.76 19.40 39.76 17.96L39.76 17.96L39.76 17.51Q39.76 16.07 39.22 15.33Q38.68 14.58 37.70 14.58L37.70 14.58Q36.74 14.58 36.20 15.33Q35.66 16.09 35.64 17.46L35.64 17.46ZM45.61 19.16L45.61 19.16L45.61 13.47L47.08 13.47L47.08 19.18Q47.08 20.03 47.52 20.48Q47.95 20.93 48.79 20.93L48.79 20.93Q50.50 20.93 50.50 19.13L50.50 19.13L50.50 13.47L51.98 13.47L51.98 19.17Q51.98 20.53 51.11 21.32Q50.24 22.12 48.79 22.12L48.79 22.12Q47.33 22.12 46.47 21.33Q45.61 20.55 45.61 19.16ZM58.12 22L56.64 22L56.64 13.47L58.12 13.47L58.12 22ZM64.41 22L62.93 22L62.93 13.47L65.93 13.47Q67.40 13.47 68.21 14.13Q69.01 14.79 69.01 16.05L69.01 16.05Q69.01 16.90 68.60 17.48Q68.18 18.06 67.44 18.37L67.44 18.37L69.36 21.92L69.36 22L67.77 22L66.06 18.71L64.41 18.71L64.41 22ZM64.41 14.66L64.41 17.52L65.93 17.52Q66.68 17.52 67.10 17.15Q67.53 16.77 67.53 16.11L67.53 16.11Q67.53 15.43 67.14 15.05Q66.75 14.68 65.97 14.66L65.97 14.66L64.41 14.66ZM78.98 22L73.40 22L73.40 13.47L78.94 13.47L78.94 14.66L74.89 14.66L74.89 17.02L78.39 17.02L78.39 18.19L74.89 18.19L74.89 20.82L78.98 20.82L78.98 22ZM82.74 19.42L82.74 19.42L84.22 19.42Q84.22 20.15 84.71 20.55Q85.19 20.95 86.08 20.95L86.08 20.95Q86.86 20.95 87.25 20.63Q87.64 20.32 87.64 19.80L87.64 19.80Q87.64 19.24 87.24 18.94Q86.84 18.63 85.81 18.32Q84.78 18.01 84.17 17.63L84.17 17.63Q83.01 16.90 83.01 15.72L83.01 15.72Q83.01 14.69 83.85 14.02Q84.69 13.35 86.03 13.35L86.03 13.35Q86.92 13.35 87.62 13.68Q88.31 14.01 88.71 14.61Q89.11 15.22 89.11 15.96L89.11 15.96L87.64 15.96Q87.64 15.29 87.22 14.91Q86.80 14.54 86.02 14.54L86.02 14.54Q85.29 14.54 84.89 14.85Q84.49 15.16 84.49 15.71L84.49 15.71Q84.49 16.18 84.92 16.50Q85.36 16.81 86.35 17.10Q87.35 17.40 87.95 17.78Q88.56 18.16 88.84 18.65Q89.12 19.13 89.12 19.79L89.12 19.79Q89.12 20.86 88.30 21.49Q87.48 22.12 86.08 22.12L86.08 22.12Q85.16 22.12 84.38 21.77Q83.60 21.43 83.17 20.83Q82.74 20.22 82.74 19.42Z" fill="#FFFFFF"/><path class="svg__text" d="M117.47 22L115.09 22L115.09 13.60L121.68 13.60L121.68 15.44L117.47 15.44L117.47 17.28L121.18 17.28L121.18 19.12L117.47 19.12L117.47 22ZM127.69 22L125.27 22L128.97 13.60L131.32 13.60L135.03 22L132.57 22L131.90 20.37L128.35 20.37L127.69 22ZM130.13 15.93L129.04 18.61L131.21 18.61L130.13 15.93ZM143.73 22L139.19 22L139.19 13.60L143.49 13.60Q145.09 13.60 145.93 14.19Q146.78 14.79 146.78 15.79L146.78 15.79Q146.78 16.39 146.48 16.87Q146.18 17.34 145.64 17.62L145.64 17.62Q146.37 17.87 146.77 18.41Q147.18 18.94 147.18 19.70L147.18 19.70Q147.18 20.80 146.29 21.40Q145.40 22 143.73 22L143.73 22ZM141.54 18.58L141.54 20.28L143.54 20.28Q144.78 20.28 144.78 19.43L144.78 19.43Q144.78 18.58 143.54 18.58L143.54 18.58L141.54 18.58ZM141.54 15.31L141.54 16.94L143.17 16.94Q144.37 16.94 144.37 16.12L144.37 16.12Q144.37 15.31 143.17 15.31L143.17 15.31L141.54 15.31ZM154.28 22L151.90 22L151.90 13.60L155.74 13.60Q156.88 13.60 157.72 13.98Q158.56 14.35 159.02 15.06Q159.47 15.76 159.47 16.71L159.47 16.71Q159.47 17.62 159.04 18.30Q158.62 18.98 157.83 19.36L157.83 19.36L159.64 22L157.09 22L155.57 19.77L154.28 19.77L154.28 22ZM154.28 15.47L154.28 17.93L155.59 17.93Q156.33 17.93 156.70 17.61Q157.07 17.29 157.07 16.71L157.07 16.71Q157.07 16.12 156.70 15.79Q156.33 15.47 155.59 15.47L155.59 15.47L154.28 15.47ZM166.64 22L164.26 22L164.26 13.60L166.64 13.60L166.64 22ZM171.38 17.80L171.38 17.80Q171.38 16.54 171.98 15.54Q172.58 14.55 173.63 13.99Q174.68 13.43 176.00 13.43L176.00 13.43Q177.16 13.43 178.08 13.84Q179.00 14.25 179.62 15.02L179.62 15.02L178.11 16.39Q177.29 15.40 176.13 15.40L176.13 15.40Q175.44 15.40 174.91 15.70Q174.37 16 174.08 16.54Q173.78 17.09 173.78 17.80L173.78 17.80Q173.78 18.51 174.08 19.05Q174.37 19.60 174.91 19.90Q175.44 20.20 176.13 20.20L176.13 20.20Q177.29 20.20 178.11 19.22L178.11 19.22L179.62 20.58Q179.01 21.35 178.08 21.76Q177.16 22.17 176.00 22.17L176.00 22.17Q174.68 22.17 173.63 21.61Q172.58 21.05 171.98 20.05Q171.38 19.06 171.38 17.80ZM192.54 22L190.12 22L193.83 13.60L196.17 13.60L199.88 22L197.42 22L196.76 20.37L193.21 20.37L192.54 22ZM194.98 15.93L193.90 18.61L196.06 18.61L194.98 15.93ZM206.42 22L204.04 22L204.04 13.60L207.88 13.60Q209.02 13.60 209.86 13.98Q210.70 14.35 211.16 15.06Q211.62 15.76 211.62 16.71L211.62 16.71Q211.62 17.66 211.16 18.35Q210.70 19.05 209.86 19.42Q209.02 19.80 207.88 19.80L207.88 19.80L206.42 19.80L206.42 22ZM206.42 15.47L206.42 17.93L207.74 17.93Q208.47 17.93 208.84 17.61Q209.21 17.29 209.21 16.71L209.21 16.71Q209.21 16.12 208.84 15.80Q208.47 15.47 207.74 15.47L207.74 15.47L206.42 15.47ZM218.75 22L216.37 22L216.37 13.60L218.75 13.60L218.75 22Z" fill="#000000" x="113.9"/></svg>