<svg xmlns="http://www.w3.org/2000/svg" width="265.32000000000005" height="35" viewBox="0 0 265.32000000000005 35"><rect class="svg__rect" x="0" y="0" width="102.9" height="35" fill="#434343"/><rect class="svg__rect" x="100.9" y="0" width="164.42000000000002" height="35" fill="#C13B3A"/><path class="svg__text" d="M15.70 22L14.22 22L14.22 13.47L17.22 13.47Q18.69 13.47 19.50 14.13Q20.30 14.79 20.30 16.05L20.30 16.05Q20.30 16.90 19.89 17.48Q19.47 18.06 18.73 18.37L18.73 18.37L20.65 21.92L20.65 22L19.06 22L17.35 18.71L15.70 18.71L15.70 22ZM15.70 14.66L15.70 17.52L17.22 17.52Q17.97 17.52 18.39 17.15Q18.82 16.77 18.82 16.11L18.82 16.11Q18.82 15.43 18.43 15.05Q18.04 14.68 17.26 14.66L17.26 14.66L15.70 14.66ZM30.27 22L24.69 22L24.69 13.47L30.23 13.47L30.23 14.66L26.18 14.66L26.18 17.02L29.68 17.02L29.68 18.19L26.18 18.19L26.18 20.82L30.27 20.82L30.27 22ZM34.16 18.00L34.16 18.00L34.16 17.52Q34.16 16.28 34.60 15.32Q35.05 14.37 35.85 13.86Q36.66 13.35 37.70 13.35L37.70 13.35Q38.75 13.35 39.56 13.85Q40.36 14.35 40.80 15.29Q41.24 16.23 41.25 17.48L41.25 17.48L41.25 17.96Q41.25 19.17 40.86 20.06Q40.48 20.95 39.79 21.47L39.79 21.47L41.25 22.61L40.29 23.48L38.48 22.04Q38.12 22.12 37.71 22.12L37.71 22.12Q36.68 22.12 35.86 21.61Q35.05 21.10 34.61 20.17Q34.17 19.23 34.16 18.00ZM35.64 17.46L35.64 17.96Q35.64 19.34 36.19 20.12Q36.73 20.90 37.71 20.90L37.71 20.90Q38.70 20.90 39.23 20.15Q39.76 19.40 39.76 17.96L39.76 17.96L39.76 17.51Q39.76 16.07 39.22 15.33Q38.68 14.58 37.70 14.58L37.70 14.58Q36.74 14.58 36.20 15.33Q35.66 16.09 35.64 17.46L35.64 17.46ZM45.61 19.16L45.61 19.16L45.61 13.47L47.08 13.47L47.08 19.18Q47.08 20.03 47.52 20.48Q47.95 20.93 48.79 20.93L48.79 20.93Q50.50 20.93 50.50 19.13L50.50 19.13L50.50 13.47L51.98 13.47L51.98 19.17Q51.98 20.53 51.11 21.32Q50.24 22.12 48.79 22.12L48.79 22.12Q47.33 22.12 46.47 21.33Q45.61 20.55 45.61 19.16ZM58.12 22L56.64 22L56.64 13.47L58.12 13.47L58.12 22ZM64.41 22L62.93 22L62.93 13.47L65.93 13.47Q67.40 13.47 68.21 14.13Q69.01 14.79 69.01 16.05L69.01 16.05Q69.01 16.90 68.60 17.48Q68.18 18.06 67.44 18.37L67.44 18.37L69.36 21.92L69.36 22L67.77 22L66.06 18.71L64.41 18.71L64.41 22ZM64.41 14.66L64.41 17.52L65.93 17.52Q66.68 17.52 67.10 17.15Q67.53 16.77 67.53 16.11L67.53 16.11Q67.53 15.43 67.14 15.05Q66.75 14.68 65.97 14.66L65.97 14.66L64.41 14.66ZM78.98 22L73.40 22L73.40 13.47L78.94 13.47L78.94 14.66L74.89 14.66L74.89 17.02L78.39 17.02L78.39 18.19L74.89 18.19L74.89 20.82L78.98 20.82L78.98 22ZM82.74 19.42L82.74 19.42L84.22 19.42Q84.22 20.15 84.71 20.55Q85.19 20.95 86.08 20.95L86.08 20.95Q86.86 20.95 87.25 20.63Q87.64 20.32 87.64 19.80L87.64 19.80Q87.64 19.24 87.24 18.94Q86.84 18.63 85.81 18.32Q84.78 18.01 84.17 17.63L84.17 17.63Q83.01 16.90 83.01 15.72L83.01 15.72Q83.01 14.69 83.85 14.02Q84.69 13.35 86.03 13.35L86.03 13.35Q86.92 13.35 87.62 13.68Q88.31 14.01 88.71 14.61Q89.11 15.22 89.11 15.96L89.11 15.96L87.64 15.96Q87.64 15.29 87.22 14.91Q86.80 14.54 86.02 14.54L86.02 14.54Q85.29 14.54 84.89 14.85Q84.49 15.16 84.49 15.71L84.49 15.71Q84.49 16.18 84.92 16.50Q85.36 16.81 86.35 17.10Q87.35 17.40 87.95 17.78Q88.56 18.16 88.84 18.65Q89.12 19.13 89.12 19.79L89.12 19.79Q89.12 20.86 88.30 21.49Q87.48 22.12 86.08 22.12L86.08 22.12Q85.16 22.12 84.38 21.77Q83.60 21.43 83.17 20.83Q82.74 20.22 82.74 19.42Z" fill="#FFFFFF"/><path class="svg__text" d="M116.51 22L114.08 22L117.79 13.60L120.13 13.60L123.85 22L121.38 22L120.72 20.37L117.17 20.37L116.51 22ZM118.94 15.93L117.86 18.61L120.02 18.61L118.94 15.93ZM130.38 22L128.00 22L128.00 13.60L131.85 13.60Q132.99 13.60 133.83 13.98Q134.66 14.35 135.12 15.06Q135.58 15.76 135.58 16.71L135.58 16.71Q135.58 17.62 135.15 18.30Q134.72 18.98 133.93 19.36L133.93 19.36L135.74 22L133.20 22L131.68 19.77L130.38 19.77L130.38 22ZM130.38 15.47L130.38 17.93L131.70 17.93Q132.43 17.93 132.80 17.61Q133.18 17.29 133.18 16.71L133.18 16.71Q133.18 16.12 132.80 15.79Q132.43 15.47 131.70 15.47L131.70 15.47L130.38 15.47ZM139.94 17.80L139.94 17.80Q139.94 16.54 140.54 15.54Q141.13 14.55 142.18 13.99Q143.24 13.43 144.55 13.43L144.55 13.43Q145.71 13.43 146.63 13.84Q147.55 14.25 148.17 15.02L148.17 15.02L146.66 16.39Q145.84 15.40 144.68 15.40L144.68 15.40Q143.99 15.40 143.46 15.70Q142.93 16 142.63 16.54Q142.33 17.09 142.33 17.80L142.33 17.80Q142.33 18.51 142.63 19.05Q142.93 19.60 143.46 19.90Q143.99 20.20 144.68 20.20L144.68 20.20Q145.84 20.20 146.66 19.22L146.66 19.22L148.17 20.58Q147.56 21.35 146.63 21.76Q145.71 22.17 144.55 22.17L144.55 22.17Q143.24 22.17 142.18 21.61Q141.13 21.05 140.54 20.05Q139.94 19.06 139.94 17.80ZM155.08 22L152.71 22L152.71 13.60L155.08 13.60L155.08 16.76L158.32 16.76L158.32 13.60L160.70 13.60L160.70 22L158.32 22L158.32 18.72L155.08 18.72L155.08 22ZM168.24 22L165.86 22L165.86 13.60L168.24 13.60L168.24 22ZM175.21 15.48L172.62 15.48L172.62 13.60L180.14 13.60L180.14 15.48L177.58 15.48L177.58 22L175.21 22L175.21 15.48ZM191.26 22L184.52 22L184.52 13.60L191.11 13.60L191.11 15.44L186.87 15.44L186.87 16.85L190.60 16.85L190.60 18.63L186.87 18.63L186.87 20.17L191.26 20.17L191.26 22ZM195.64 17.80L195.64 17.80Q195.64 16.54 196.23 15.54Q196.83 14.55 197.88 13.99Q198.94 13.43 200.25 13.43L200.25 13.43Q201.41 13.43 202.33 13.84Q203.25 14.25 203.87 15.02L203.87 15.02L202.36 16.39Q201.54 15.40 200.38 15.40L200.38 15.40Q199.69 15.40 199.16 15.70Q198.63 16 198.33 16.54Q198.03 17.09 198.03 17.80L198.03 17.80Q198.03 18.51 198.33 19.05Q198.63 19.60 199.16 19.90Q199.69 20.20 200.38 20.20L200.38 20.20Q201.54 20.20 202.36 19.22L202.36 19.22L203.87 20.58Q203.26 21.35 202.33 21.76Q201.41 22.17 200.25 22.17L200.25 22.17Q198.94 22.17 197.88 21.61Q196.83 21.05 196.23 20.05Q195.64 19.06 195.64 17.80ZM210.20 15.48L207.61 15.48L207.61 13.60L215.14 13.60L215.14 15.48L212.57 15.48L212.57 22L210.20 22L210.20 15.48ZM219.44 18.26L219.44 18.26L219.44 13.60L221.82 13.60L221.82 18.19Q221.82 20.20 223.41 20.20L223.41 20.20Q224.99 20.20 224.99 18.19L224.99 18.19L224.99 13.60L227.34 13.60L227.34 18.26Q227.34 20.13 226.30 21.15Q225.26 22.17 223.39 22.17L223.39 22.17Q221.51 22.17 220.47 21.15Q219.44 20.13 219.44 18.26ZM234.80 22L232.42 22L232.42 13.60L236.27 13.60Q237.41 13.60 238.25 13.98Q239.08 14.35 239.54 15.06Q240.00 15.76 240.00 16.71L240.00 16.71Q240.00 17.62 239.57 18.30Q239.14 18.98 238.35 19.36L238.35 19.36L240.16 22L237.62 22L236.10 19.77L234.80 19.77L234.80 22ZM234.80 15.47L234.80 17.93L236.12 17.93Q236.85 17.93 237.22 17.61Q237.60 17.29 237.60 16.71L237.60 16.71Q237.60 16.12 237.22 15.79Q236.85 15.47 236.12 15.47L236.12 15.47L234.80 15.47ZM246.91 18.95L243.71 13.60L246.21 13.60L248.21 16.94L250.20 13.60L252.50 13.60L249.29 18.99L249.29 22L246.91 22L246.91 18.95Z" fill="#000000" x="113.9"/></svg>